<svg width="28" height="27" viewBox="0 0 28 27" fill="none" xmlns="http://www.w3.org/2000/svg">
<path fill-rule="evenodd" clip-rule="evenodd" d="M10.3333 3.84277C9.48906 3.84277 8.80469 4.52715 8.80469 5.37137V13.4132C8.80469 14.2574 9.48906 14.9418 10.3333 14.9418H25.925C26.7692 14.9418 27.4536 14.2574 27.4536 13.4132V5.37137C27.4536 4.52715 26.7692 3.84277 25.925 3.84277H10.3333ZM11.8617 11.6484V7.03543H12.7893V10.8754H14.6695V11.6484H11.8617ZM15.4789 11.6484V7.03543H16.4064V11.6484H15.4789ZM16.9459 7.03543L18.3623 11.6484H19.4653L20.888 7.03543H19.9479L19.3462 9.27956C19.2742 9.54138 19.2115 9.78293 19.1488 10.0245C19.0861 10.266 19.0235 10.5076 18.9514 10.7694H18.9201C18.8377 10.4828 18.7723 10.2205 18.7063 9.95584L18.7063 9.95581L18.7063 9.95579C18.6517 9.73696 18.5967 9.51656 18.5315 9.27956L17.9173 7.03543H16.9459ZM21.4217 11.6484V7.03543H24.2671V7.80218H22.3493V8.86814H23.9788V9.64111H22.3493V10.8754H24.336V11.6484H21.4217Z" fill="#C4C4C4"/>
<path fill-rule="evenodd" clip-rule="evenodd" d="M10.3333 3.84277C9.48906 3.84277 8.80469 4.52715 8.80469 5.37137V13.4132C8.80469 14.2574 9.48906 14.9418 10.3333 14.9418H25.925C26.7692 14.9418 27.4536 14.2574 27.4536 13.4132V5.37137C27.4536 4.52715 26.7692 3.84277 25.925 3.84277H10.3333ZM11.8617 11.6484V7.03543H12.7893V10.8754H14.6695V11.6484H11.8617ZM15.4789 11.6484V7.03543H16.4064V11.6484H15.4789ZM16.9459 7.03543L18.3623 11.6484H19.4653L20.888 7.03543H19.9479L19.3462 9.27956C19.2742 9.54138 19.2115 9.78293 19.1488 10.0245C19.0861 10.266 19.0235 10.5076 18.9514 10.7694H18.9201C18.8377 10.4828 18.7723 10.2205 18.7063 9.95584L18.7063 9.95581L18.7063 9.95579C18.6517 9.73696 18.5967 9.51656 18.5315 9.27956L17.9173 7.03543H16.9459ZM21.4217 11.6484V7.03543H24.2671V7.80218H22.3493V8.86814H23.9788V9.64111H22.3493V10.8754H24.336V11.6484H21.4217Z" fill="white"/>
<path fill-rule="evenodd" clip-rule="evenodd" d="M7.12276 6.26855C3.3377 7.27368 0.549805 10.7076 0.549805 14.7892C0.549805 19.6595 4.51919 23.6076 9.41566 23.6076C13.683 23.6076 17.2462 20.6088 18.0914 16.6143H17.1511C16.3228 20.0955 13.1771 22.6904 9.41566 22.6904C5.02107 22.6904 1.46696 19.1483 1.46696 14.7892C1.46696 11.221 3.84833 8.20026 7.12276 7.22153V6.26855Z" fill="white"/>
<path fill-rule="evenodd" clip-rule="evenodd" d="M7.42837 8.57324C4.74992 9.40401 2.80566 11.89 2.80566 14.8277C2.80566 18.4454 5.75416 21.3781 9.39132 21.3781C12.461 21.3781 15.0401 19.2892 15.7702 16.4625H14.8173C14.1128 18.7742 11.953 20.461 9.39132 20.461C6.25605 20.461 3.72282 17.9342 3.72282 14.8277C3.72282 12.4053 5.26325 10.3354 7.42837 9.54124V8.57324Z" fill="white"/>
<path fill-rule="evenodd" clip-rule="evenodd" d="M7.12293 11.6255C6.08493 12.3354 5.4043 13.5249 5.4043 14.8725C5.4043 17.0472 7.17674 18.8102 9.36317 18.8102C11.0394 18.8102 12.4723 17.774 13.0498 16.3104H12.0386C11.5245 17.2517 10.5212 17.893 9.36317 17.893C7.67863 17.893 6.32145 16.5361 6.32145 14.8725C6.32145 14.0859 6.62491 13.3678 7.12293 12.8294V11.6255Z" fill="white"/>
</svg>
