<svg width="67" height="31" viewBox="0 0 67 31" fill="none" xmlns="http://www.w3.org/2000/svg">
<path d="M0 5C0 2.23858 2.23858 0 5 0H62C64.7614 0 67 2.23858 67 5V26C67 28.7614 64.7614 31 62 31H5C2.23858 31 0 28.7614 0 26V5Z" fill="#772CE8"/>
<path d="M15.638 8.68V22H23.702V19.768H18.302V8.68H15.638ZM26.0267 8.68V22H28.6907V8.68H26.0267ZM30.2401 8.68L34.3081 22H37.4761L41.5621 8.68H38.8621L37.1341 15.16C36.7201 16.672 36.4141 17.95 36.0001 19.462H35.9101C35.4781 17.95 35.2081 16.672 34.7941 15.16L33.0301 8.68H30.2401ZM43.095 8.68V22H51.465V19.768H45.759V16.204H50.439V13.972H45.759V10.894H51.267V8.68H43.095Z" fill="#FEFDFF"/>
</svg>
